<mxfile host="app.diagrams.net" modified="2023-02-10T06:13:12.305Z" agent="5.0 (Windows)" etag="_MlxY6Ob4zVHE7VKnQE4" version="20.8.19" type="github">
  <diagram name="Page-1" id="2YBvvXClWsGukQMizWep">
    <mxGraphModel dx="1687" dy="2020" grid="1" gridSize="10" guides="1" tooltips="1" connect="1" arrows="1" fold="1" page="1" pageScale="1" pageWidth="850" pageHeight="1100" math="0" shadow="0">
      <root>
        <mxCell id="0" />
        <mxCell id="1" parent="0" />
        <mxCell id="UtuN5AsWT4zRoeTjt-Tj-32" value="" style="rounded=0;whiteSpace=wrap;html=1;fontSize=24;" vertex="1" parent="1">
          <mxGeometry x="110" y="250" width="360" height="130" as="geometry" />
        </mxCell>
        <mxCell id="aM9ryv3xv72pqoxQDRHE-1" value="USER" style="shape=umlLifeline;perimeter=lifelinePerimeter;whiteSpace=wrap;html=1;container=0;dropTarget=0;collapsible=0;recursiveResize=0;outlineConnect=0;portConstraint=eastwest;newEdgeStyle={&quot;edgeStyle&quot;:&quot;elbowEdgeStyle&quot;,&quot;elbow&quot;:&quot;vertical&quot;,&quot;curved&quot;:0,&quot;rounded&quot;:0};" parent="1" vertex="1">
          <mxGeometry x="65" y="160" width="100" height="440" as="geometry" />
        </mxCell>
        <mxCell id="aM9ryv3xv72pqoxQDRHE-2" value="" style="html=1;points=[];perimeter=orthogonalPerimeter;outlineConnect=0;targetShapes=umlLifeline;portConstraint=eastwest;newEdgeStyle={&quot;edgeStyle&quot;:&quot;elbowEdgeStyle&quot;,&quot;elbow&quot;:&quot;vertical&quot;,&quot;curved&quot;:0,&quot;rounded&quot;:0};" parent="aM9ryv3xv72pqoxQDRHE-1" vertex="1">
          <mxGeometry x="45" y="70" width="10" height="340" as="geometry" />
        </mxCell>
        <mxCell id="aM9ryv3xv72pqoxQDRHE-3" value="dispatch" style="html=1;verticalAlign=bottom;startArrow=oval;endArrow=block;startSize=8;edgeStyle=elbowEdgeStyle;elbow=vertical;curved=0;rounded=0;" parent="aM9ryv3xv72pqoxQDRHE-1" target="aM9ryv3xv72pqoxQDRHE-2" edge="1">
          <mxGeometry relative="1" as="geometry">
            <mxPoint x="-15" y="70" as="sourcePoint" />
          </mxGeometry>
        </mxCell>
        <mxCell id="aM9ryv3xv72pqoxQDRHE-4" value="" style="html=1;points=[];perimeter=orthogonalPerimeter;outlineConnect=0;targetShapes=umlLifeline;portConstraint=eastwest;newEdgeStyle={&quot;edgeStyle&quot;:&quot;elbowEdgeStyle&quot;,&quot;elbow&quot;:&quot;vertical&quot;,&quot;curved&quot;:0,&quot;rounded&quot;:0};" parent="aM9ryv3xv72pqoxQDRHE-1" vertex="1">
          <mxGeometry x="50" y="120" width="10" height="90" as="geometry" />
        </mxCell>
        <mxCell id="aM9ryv3xv72pqoxQDRHE-5" value="&lt;div&gt;INTERFACE&lt;/div&gt;&lt;div&gt;(BUTTONS)&lt;/div&gt;" style="shape=umlLifeline;perimeter=lifelinePerimeter;whiteSpace=wrap;html=1;container=0;dropTarget=0;collapsible=0;recursiveResize=0;outlineConnect=0;portConstraint=eastwest;newEdgeStyle={&quot;edgeStyle&quot;:&quot;elbowEdgeStyle&quot;,&quot;elbow&quot;:&quot;vertical&quot;,&quot;curved&quot;:0,&quot;rounded&quot;:0};" parent="1" vertex="1">
          <mxGeometry x="235" y="140" width="100" height="430" as="geometry" />
        </mxCell>
        <mxCell id="aM9ryv3xv72pqoxQDRHE-6" value="" style="html=1;points=[];perimeter=orthogonalPerimeter;outlineConnect=0;targetShapes=umlLifeline;portConstraint=eastwest;newEdgeStyle={&quot;edgeStyle&quot;:&quot;elbowEdgeStyle&quot;,&quot;elbow&quot;:&quot;vertical&quot;,&quot;curved&quot;:0,&quot;rounded&quot;:0};" parent="aM9ryv3xv72pqoxQDRHE-5" vertex="1">
          <mxGeometry x="45" y="80" width="10" height="350" as="geometry" />
        </mxCell>
        <mxCell id="aM9ryv3xv72pqoxQDRHE-7" value="INPUT ADDRESS" style="html=1;verticalAlign=bottom;endArrow=block;edgeStyle=elbowEdgeStyle;elbow=vertical;curved=0;rounded=0;" parent="1" edge="1">
          <mxGeometry relative="1" as="geometry">
            <mxPoint x="120" y="267" as="sourcePoint" />
            <Array as="points">
              <mxPoint x="245" y="267" />
            </Array>
            <mxPoint x="280" y="267" as="targetPoint" />
          </mxGeometry>
        </mxCell>
        <mxCell id="aM9ryv3xv72pqoxQDRHE-8" value="return" style="html=1;verticalAlign=bottom;endArrow=open;dashed=1;endSize=8;edgeStyle=elbowEdgeStyle;elbow=vertical;curved=0;rounded=0;" parent="1" source="aM9ryv3xv72pqoxQDRHE-6" target="aM9ryv3xv72pqoxQDRHE-2" edge="1">
          <mxGeometry relative="1" as="geometry">
            <mxPoint x="260" y="375" as="targetPoint" />
            <Array as="points">
              <mxPoint x="220" y="540" />
              <mxPoint x="255" y="450" />
            </Array>
          </mxGeometry>
        </mxCell>
        <mxCell id="aM9ryv3xv72pqoxQDRHE-9" value="YOU IDJIT" style="html=1;verticalAlign=bottom;endArrow=block;edgeStyle=elbowEdgeStyle;elbow=vertical;curved=0;rounded=0;" parent="1" edge="1">
          <mxGeometry relative="1" as="geometry">
            <mxPoint x="285" y="361" as="sourcePoint" />
            <Array as="points">
              <mxPoint x="260" y="361" />
              <mxPoint x="210" y="361" />
              <mxPoint x="255" y="361" />
            </Array>
            <mxPoint x="125" y="361" as="targetPoint" />
          </mxGeometry>
        </mxCell>
        <mxCell id="UtuN5AsWT4zRoeTjt-Tj-9" value="" style="group" vertex="1" connectable="0" parent="1">
          <mxGeometry x="90" y="-10" width="50" height="150" as="geometry" />
        </mxCell>
        <mxCell id="UtuN5AsWT4zRoeTjt-Tj-1" value="" style="ellipse;whiteSpace=wrap;html=1;aspect=fixed;" vertex="1" parent="UtuN5AsWT4zRoeTjt-Tj-9">
          <mxGeometry y="9" width="50" height="50" as="geometry" />
        </mxCell>
        <mxCell id="UtuN5AsWT4zRoeTjt-Tj-3" value="" style="endArrow=none;html=1;rounded=0;" edge="1" parent="UtuN5AsWT4zRoeTjt-Tj-9">
          <mxGeometry width="50" height="50" relative="1" as="geometry">
            <mxPoint y="90" as="sourcePoint" />
            <mxPoint x="50" y="90" as="targetPoint" />
          </mxGeometry>
        </mxCell>
        <mxCell id="UtuN5AsWT4zRoeTjt-Tj-5" value="" style="endArrow=none;html=1;rounded=0;" edge="1" parent="UtuN5AsWT4zRoeTjt-Tj-9">
          <mxGeometry width="50" height="50" relative="1" as="geometry">
            <mxPoint x="25" y="120" as="sourcePoint" />
            <mxPoint x="25" y="60" as="targetPoint" />
          </mxGeometry>
        </mxCell>
        <mxCell id="UtuN5AsWT4zRoeTjt-Tj-6" value="" style="endArrow=none;html=1;rounded=0;" edge="1" parent="UtuN5AsWT4zRoeTjt-Tj-9">
          <mxGeometry width="50" height="50" relative="1" as="geometry">
            <mxPoint y="150" as="sourcePoint" />
            <mxPoint x="25" y="120" as="targetPoint" />
          </mxGeometry>
        </mxCell>
        <mxCell id="UtuN5AsWT4zRoeTjt-Tj-7" value="" style="endArrow=none;html=1;rounded=0;" edge="1" parent="UtuN5AsWT4zRoeTjt-Tj-9">
          <mxGeometry width="50" height="50" relative="1" as="geometry">
            <mxPoint x="50" y="150" as="sourcePoint" />
            <mxPoint x="25" y="120" as="targetPoint" />
          </mxGeometry>
        </mxCell>
        <mxCell id="UtuN5AsWT4zRoeTjt-Tj-14" value="" style="group" vertex="1" connectable="0" parent="1">
          <mxGeometry x="250" y="30" width="70" height="60" as="geometry" />
        </mxCell>
        <mxCell id="UtuN5AsWT4zRoeTjt-Tj-10" value="" style="ellipse;whiteSpace=wrap;html=1;aspect=fixed;" vertex="1" parent="UtuN5AsWT4zRoeTjt-Tj-14">
          <mxGeometry x="10" width="60" height="60" as="geometry" />
        </mxCell>
        <mxCell id="UtuN5AsWT4zRoeTjt-Tj-12" value="" style="endArrow=none;html=1;rounded=0;" edge="1" parent="UtuN5AsWT4zRoeTjt-Tj-14">
          <mxGeometry width="50" height="50" relative="1" as="geometry">
            <mxPoint y="60" as="sourcePoint" />
            <mxPoint as="targetPoint" />
          </mxGeometry>
        </mxCell>
        <mxCell id="UtuN5AsWT4zRoeTjt-Tj-13" value="" style="endArrow=none;html=1;rounded=0;entryX=0;entryY=0.5;entryDx=0;entryDy=0;" edge="1" parent="UtuN5AsWT4zRoeTjt-Tj-14" target="UtuN5AsWT4zRoeTjt-Tj-10">
          <mxGeometry width="50" height="50" relative="1" as="geometry">
            <mxPoint y="30" as="sourcePoint" />
            <mxPoint x="200" y="220" as="targetPoint" />
          </mxGeometry>
        </mxCell>
        <mxCell id="UtuN5AsWT4zRoeTjt-Tj-15" value="" style="group;rotation=-90;" vertex="1" connectable="0" parent="1">
          <mxGeometry x="660" y="30" width="70" height="60" as="geometry" />
        </mxCell>
        <mxCell id="UtuN5AsWT4zRoeTjt-Tj-16" value="" style="ellipse;whiteSpace=wrap;html=1;aspect=fixed;rotation=-90;" vertex="1" parent="UtuN5AsWT4zRoeTjt-Tj-15">
          <mxGeometry x="5" y="-5" width="60" height="60" as="geometry" />
        </mxCell>
        <mxCell id="UtuN5AsWT4zRoeTjt-Tj-17" value="" style="endArrow=none;html=1;rounded=0;" edge="1" parent="UtuN5AsWT4zRoeTjt-Tj-15">
          <mxGeometry width="50" height="50" relative="1" as="geometry">
            <mxPoint x="65" y="55" as="sourcePoint" />
            <mxPoint x="5" y="55" as="targetPoint" />
          </mxGeometry>
        </mxCell>
        <mxCell id="UtuN5AsWT4zRoeTjt-Tj-20" value="" style="group;rotation=-90;" vertex="1" connectable="0" parent="1">
          <mxGeometry x="440" y="40" width="95" height="60" as="geometry" />
        </mxCell>
        <mxCell id="UtuN5AsWT4zRoeTjt-Tj-23" value="" style="endArrow=none;html=1;rounded=0;" edge="1" parent="UtuN5AsWT4zRoeTjt-Tj-20">
          <mxGeometry width="50" height="50" relative="1" as="geometry">
            <mxPoint x="25" y="-20" as="sourcePoint" />
            <mxPoint x="35" y="-10" as="targetPoint" />
          </mxGeometry>
        </mxCell>
        <mxCell id="UtuN5AsWT4zRoeTjt-Tj-21" value="" style="ellipse;whiteSpace=wrap;html=1;aspect=fixed;rotation=-90;" vertex="1" parent="UtuN5AsWT4zRoeTjt-Tj-20">
          <mxGeometry y="-10" width="60" height="60" as="geometry" />
        </mxCell>
        <mxCell id="UtuN5AsWT4zRoeTjt-Tj-24" value="" style="endArrow=none;html=1;rounded=0;" edge="1" parent="UtuN5AsWT4zRoeTjt-Tj-20">
          <mxGeometry width="50" height="50" relative="1" as="geometry">
            <mxPoint x="25" as="sourcePoint" />
            <mxPoint x="35" y="-10" as="targetPoint" />
          </mxGeometry>
        </mxCell>
        <mxCell id="UtuN5AsWT4zRoeTjt-Tj-26" value="LOGIC" style="shape=umlLifeline;perimeter=lifelinePerimeter;whiteSpace=wrap;html=1;container=0;dropTarget=0;collapsible=0;recursiveResize=0;outlineConnect=0;portConstraint=eastwest;newEdgeStyle={&quot;edgeStyle&quot;:&quot;elbowEdgeStyle&quot;,&quot;elbow&quot;:&quot;vertical&quot;,&quot;curved&quot;:0,&quot;rounded&quot;:0};" vertex="1" parent="1">
          <mxGeometry x="425" y="150" width="100" height="410" as="geometry" />
        </mxCell>
        <mxCell id="UtuN5AsWT4zRoeTjt-Tj-27" value="" style="html=1;points=[];perimeter=orthogonalPerimeter;outlineConnect=0;targetShapes=umlLifeline;portConstraint=eastwest;newEdgeStyle={&quot;edgeStyle&quot;:&quot;elbowEdgeStyle&quot;,&quot;elbow&quot;:&quot;vertical&quot;,&quot;curved&quot;:0,&quot;rounded&quot;:0};" vertex="1" parent="UtuN5AsWT4zRoeTjt-Tj-26">
          <mxGeometry x="45" y="80" width="10" height="290" as="geometry" />
        </mxCell>
        <mxCell id="UtuN5AsWT4zRoeTjt-Tj-28" value="&lt;div&gt;DAATA&lt;/div&gt;&lt;div&gt;(INSERT WEBSITES)&lt;br&gt;&lt;/div&gt;" style="shape=umlLifeline;perimeter=lifelinePerimeter;whiteSpace=wrap;html=1;container=0;dropTarget=0;collapsible=0;recursiveResize=0;outlineConnect=0;portConstraint=eastwest;newEdgeStyle={&quot;edgeStyle&quot;:&quot;elbowEdgeStyle&quot;,&quot;elbow&quot;:&quot;vertical&quot;,&quot;curved&quot;:0,&quot;rounded&quot;:0};" vertex="1" parent="1">
          <mxGeometry x="645" y="160" width="100" height="440" as="geometry" />
        </mxCell>
        <mxCell id="UtuN5AsWT4zRoeTjt-Tj-29" value="" style="html=1;points=[];perimeter=orthogonalPerimeter;outlineConnect=0;targetShapes=umlLifeline;portConstraint=eastwest;newEdgeStyle={&quot;edgeStyle&quot;:&quot;elbowEdgeStyle&quot;,&quot;elbow&quot;:&quot;vertical&quot;,&quot;curved&quot;:0,&quot;rounded&quot;:0};" vertex="1" parent="UtuN5AsWT4zRoeTjt-Tj-28">
          <mxGeometry x="45" y="100" width="10" height="270" as="geometry" />
        </mxCell>
        <mxCell id="UtuN5AsWT4zRoeTjt-Tj-30" value="REQUEST" style="html=1;verticalAlign=bottom;endArrow=block;edgeStyle=elbowEdgeStyle;elbow=vertical;curved=0;rounded=0;" edge="1" parent="1" source="aM9ryv3xv72pqoxQDRHE-6">
          <mxGeometry relative="1" as="geometry">
            <mxPoint x="310" y="289.41" as="sourcePoint" />
            <Array as="points">
              <mxPoint x="435" y="289.41" />
            </Array>
            <mxPoint x="470" y="289.41" as="targetPoint" />
          </mxGeometry>
        </mxCell>
        <mxCell id="UtuN5AsWT4zRoeTjt-Tj-31" value="&lt;font style=&quot;font-size: 24px;&quot;&gt;QUERY AVAILABILITY FUNCTION&lt;/font&gt;" style="text;html=1;align=center;verticalAlign=middle;resizable=0;points=[];autosize=1;strokeColor=none;fillColor=none;" vertex="1" parent="1">
          <mxGeometry x="200" y="-80" width="400" height="40" as="geometry" />
        </mxCell>
        <mxCell id="UtuN5AsWT4zRoeTjt-Tj-33" value="" style="rounded=0;whiteSpace=wrap;html=1;fontSize=24;" vertex="1" parent="1">
          <mxGeometry x="120" y="230" width="50" height="20" as="geometry" />
        </mxCell>
        <mxCell id="UtuN5AsWT4zRoeTjt-Tj-34" value="&lt;font style=&quot;font-size: 6px;&quot;&gt;LOOP&lt;/font&gt;" style="text;html=1;strokeColor=none;fillColor=none;align=center;verticalAlign=middle;whiteSpace=wrap;rounded=0;fontSize=12;" vertex="1" parent="1">
          <mxGeometry x="135" y="237.5" width="20" height="5" as="geometry" />
        </mxCell>
        <mxCell id="UtuN5AsWT4zRoeTjt-Tj-35" value="INVALID" style="html=1;verticalAlign=bottom;endArrow=block;edgeStyle=elbowEdgeStyle;elbow=vertical;curved=0;rounded=0;" edge="1" parent="1" target="aM9ryv3xv72pqoxQDRHE-6">
          <mxGeometry relative="1" as="geometry">
            <mxPoint x="470" y="330" as="sourcePoint" />
            <Array as="points">
              <mxPoint x="445" y="330" />
              <mxPoint x="395" y="330" />
              <mxPoint x="440" y="330" />
            </Array>
            <mxPoint x="310" y="330" as="targetPoint" />
          </mxGeometry>
        </mxCell>
        <mxCell id="UtuN5AsWT4zRoeTjt-Tj-36" value="COMPARE AVAILABLE" style="html=1;verticalAlign=bottom;endArrow=block;edgeStyle=elbowEdgeStyle;elbow=vertical;curved=0;rounded=0;" edge="1" parent="1" target="UtuN5AsWT4zRoeTjt-Tj-28">
          <mxGeometry relative="1" as="geometry">
            <mxPoint x="480" y="400" as="sourcePoint" />
            <Array as="points">
              <mxPoint x="625" y="400.41" />
            </Array>
            <mxPoint x="660" y="400.41" as="targetPoint" />
          </mxGeometry>
        </mxCell>
        <mxCell id="UtuN5AsWT4zRoeTjt-Tj-37" value="&lt;div&gt;DATA IN&lt;/div&gt;" style="html=1;verticalAlign=bottom;endArrow=block;edgeStyle=elbowEdgeStyle;elbow=vertical;curved=0;rounded=0;" edge="1" parent="1" target="UtuN5AsWT4zRoeTjt-Tj-26">
          <mxGeometry x="0.0229" relative="1" as="geometry">
            <mxPoint x="690" y="470" as="sourcePoint" />
            <Array as="points">
              <mxPoint x="665" y="470" />
              <mxPoint x="615" y="470" />
              <mxPoint x="660" y="470" />
            </Array>
            <mxPoint x="510" y="470" as="targetPoint" />
            <mxPoint as="offset" />
          </mxGeometry>
        </mxCell>
        <mxCell id="UtuN5AsWT4zRoeTjt-Tj-38" value="RANKED CHOICES IN" style="html=1;verticalAlign=bottom;endArrow=block;edgeStyle=elbowEdgeStyle;elbow=vertical;curved=0;rounded=0;" edge="1" parent="1" target="aM9ryv3xv72pqoxQDRHE-5">
          <mxGeometry x="0.0229" relative="1" as="geometry">
            <mxPoint x="470" y="510" as="sourcePoint" />
            <Array as="points">
              <mxPoint x="445" y="510" />
              <mxPoint x="395" y="510" />
              <mxPoint x="440" y="510" />
            </Array>
            <mxPoint x="255" y="510" as="targetPoint" />
            <mxPoint as="offset" />
          </mxGeometry>
        </mxCell>
      </root>
    </mxGraphModel>
  </diagram>
</mxfile>
